<?xml version="1.0" encoding="utf-8"?>
<!-- Generator: Adobe Illustrator 26.0.1, SVG Export Plug-In . SVG Version: 6.00 Build 0)  -->
<svg version="1.1" id="Layer_1" xmlns="http://www.w3.org/2000/svg" xmlns:xlink="http://www.w3.org/1999/xlink" x="0px" y="0px"
	 viewBox="0 0 500 500" style="enable-background:new 0 0 500 500;" xml:space="preserve">
<style type="text/css">
	.st0{fill:#FF3A0A;}
	.st1{fill:#FFFFFF;stroke:#FFFFFF;stroke-miterlimit:10;}
	.st2{fill:#FFE376;}
	.st3{fill:#FFF3AD;}
	.st4{fill:#FFFFFF;}
	.st5{fill:#92CCFF;}
	.st6{fill:#C9E5FF;}
	.st7{fill:#5CB2FE;}
</style>
<g>
	<g>
		<path class="st0" d="M357.07,283H158.73c-8.69,0-15.73-7.04-15.73-15.73v-34.54c0-8.69,7.04-15.73,15.73-15.73h198.34
			c8.69,0,15.73,7.04,15.73,15.73v34.54C372.8,275.96,365.76,283,357.07,283z"/>
	</g>
	<g>
		<g>
			<path class="st1" d="M169.49,260.37c-1.13,0.57-3.46,1.16-6.41,1.16c-6.83,0-11.96-4.32-11.96-12.29
				c0-7.61,5.13-12.73,12.66-12.73c3,0,4.93,0.64,5.76,1.07l-0.77,2.55c-1.18-0.56-2.86-1-4.88-1c-5.7,0-9.46,3.64-9.46,10.01
				c0,5.94,3.42,9.73,9.3,9.73c1.93,0,3.87-0.39,5.14-1L169.49,260.37z"/>
			<path class="st1" d="M194.16,248.77c0,8.32-5.07,12.77-11.26,12.77c-6.43,0-10.9-4.98-10.9-12.31c0-7.69,4.76-12.74,11.23-12.74
				C189.86,236.49,194.16,241.57,194.16,248.77z M175.31,249.16c0,5.19,2.82,9.84,7.76,9.84c4.98,0,7.77-4.57,7.77-10.08
				c0-4.83-2.52-9.87-7.73-9.87C177.91,239.04,175.31,243.85,175.31,249.16z"/>
			<path class="st1" d="M218.96,248.77c0,8.32-5.07,12.77-11.26,12.77c-6.43,0-10.9-4.98-10.9-12.31c0-7.69,4.76-12.74,11.23-12.74
				C214.66,236.49,218.96,241.57,218.96,248.77z M200.12,249.16c0,5.19,2.82,9.84,7.76,9.84c4.98,0,7.77-4.57,7.77-10.08
				c0-4.83-2.52-9.87-7.73-9.87C202.71,239.04,200.12,243.85,200.12,249.16z"/>
			<path class="st1" d="M223.02,236.89h3.13v11.69h0.11c0.64-0.94,1.31-1.79,1.92-2.58l7.41-9.12h3.88l-8.77,10.31l9.47,13.95h-3.72
				l-7.97-11.9l-2.33,2.66v9.24h-3.13V236.89z"/>
			<path class="st1" d="M245.68,236.89v24.26h-3.15v-24.26H245.68z"/>
			<path class="st1" d="M255.77,239.53h-7.39v-2.65h17.97v2.65h-7.43v21.61h-3.15V239.53z"/>
			<path class="st1" d="M272.16,236.89v14.38c0,5.41,2.4,7.71,5.67,7.71c3.57,0,5.9-2.38,5.9-7.71v-14.38h3.15v14.15
				c0,7.46-3.92,10.5-9.18,10.5c-4.95,0-8.69-2.83-8.69-10.37v-14.29H272.16z"/>
			<path class="st1" d="M292.32,237.18c1.51-0.27,3.49-0.48,6.03-0.48c3.08,0,5.35,0.71,6.8,2.02c1.32,1.16,2.13,2.92,2.13,5.08
				c0,2.2-0.66,3.93-1.89,5.19c-1.67,1.77-4.35,2.66-7.41,2.66c-0.95,0-1.81-0.04-2.53-0.22v9.73h-3.13V237.18z M295.45,248.87
				c0.7,0.2,1.57,0.27,2.6,0.27c3.8,0,6.09-1.86,6.09-5.18c0-3.21-2.29-4.78-5.73-4.78c-1.38,0-2.41,0.13-2.96,0.25V248.87z"/>
		</g>
	</g>
	<path d="M364.19,244.44c-2.49-10.02-11.54-17.44-22.32-17.44c-12.7,0-23,10.3-23,23c0,10.19,6.62,18.83,15.8,21.85L364.19,244.44z"
		/>
	<path d="M364.87,250c0-1.92-0.24-3.78-0.68-5.56l-8.3-8.3l-24.87,5.66l15.89,15.89l-23.04,3.37l10.8,10.8
		c2.27,0.75,4.69,1.15,7.2,1.15C354.57,273,364.87,262.7,364.87,250z"/>
	<path class="st2" d="M339.87,247.55l18-2h2c0,5.5-2.61,10.39-6.67,13.5l-13.33,1V247.55L339.87,247.55z"/>
	<g>
		<path class="st3" d="M341.87,248.55v11.5l-11.33-1c-4.05-3.11-6.67-8-6.67-13.5h2L341.87,248.55z"/>
		<path class="st3" d="M341.87,245.55l-3,5.75l3,5.75h10.63c3.42-2.86,5.37-7.02,5.37-11.5H341.87L341.87,245.55z"/>
	</g>
	<path class="st4" d="M325.87,245.55c0,4.48,1.95,8.64,5.37,11.5h10.63v-11.5H325.87L325.87,245.55z"/>
	<polygon class="st2" points="356.87,261.05 354.87,264.55 341.87,264.55 339.92,260.05 	"/>
	<g>
		<polygon class="st3" points="328.87,264.55 341.87,264.55 341.87,260.05 326.87,261.05 		"/>
		<polygon class="st3" points="359.87,259.05 359.87,261.05 341.87,261.05 340.88,260.05 341.87,259.05 		"/>
	</g>
	<rect x="323.87" y="259.05" class="st4" width="18" height="2"/>
	<path class="st5" d="M329.27,237.55l12.76-1l14.45,1c0,1.1-0.9,2-2,2h-12.45l-2.77,2.47c-1.06,0.95-2.46,1.53-4,1.53
		C331.95,243.55,329.27,240.86,329.27,237.55z"/>
	<path class="st6" d="M356.48,237.55h-27.21c0-3.31,2.69-6,6-6c1.54,0,2.94,0.58,4,1.53c0,0,2.77,2.47,2.77,2.47h12.44
		C355.58,235.55,356.48,236.45,356.48,237.55z"/>
	<path class="st7" d="M339.27,237.55l-4-2l-4,2c0,2.21,1.79,4,4,4S339.27,239.76,339.27,237.55z"/>
	<path class="st5" d="M335.27,233.55c-2.21,0-4,1.79-4,4h8C339.27,235.34,337.48,233.55,335.27,233.55z"/>
	<g>
		<rect x="350.83" y="248.26" class="st4" width="2.08" height="2.08"/>
		<rect x="346.83" y="252.26" class="st4" width="2.08" height="2.08"/>
	</g>
</g>
</svg>
